<?xml version="1.0" standalone="no"?>
<!DOCTYPE svg PUBLIC "-//W3C//DTD SVG 20010904//EN"
 "http://www.w3.org/TR/2001/REC-SVG-20010904/DTD/svg10.dtd">
<svg version="1.0" xmlns="http://www.w3.org/2000/svg"
 width="1024.000000pt" height="576.000000pt" viewBox="0 0 1024.000000 576.000000"
 preserveAspectRatio="xMidYMid meet">

<g transform="translate(0.000000,576.000000) scale(0.100000,-0.100000)"
fill="#000000" stroke="none">
<path d="M4575 4569 c-566 -33 -935 -136 -1199 -333 -45 -33 -171 -149 -280
-258 l-200 -199 -40 39 c-23 22 -63 56 -91 77 -35 26 -60 57 -85 103 -42 81
-48 83 -240 85 -155 2 -190 -4 -190 -34 0 -82 137 -166 308 -190 86 -12 140
-36 171 -75 40 -51 33 -54 -111 -54 -114 0 -343 -22 -354 -33 -3 -2 40 -7 93
-10 197 -12 452 -67 708 -153 239 -79 470 -185 765 -350 l65 -36 -30 32 c-49
52 -181 156 -308 241 -72 48 -110 79 -97 79 11 0 64 -6 118 -14 225 -34 669
-68 1127 -87 596 -25 1412 14 2050 97 l50 6 -102 -70 c-146 -100 -359 -269
-350 -278 2 -3 49 21 103 52 486 276 1014 454 1429 481 53 3 93 8 91 10 -12
12 -228 32 -348 33 -76 0 -138 3 -138 6 0 4 9 21 20 40 27 43 87 71 180 84 41
6 91 15 110 22 124 39 227 139 190 183 -23 28 -310 27 -384 -1 -7 -3 -26 -32
-42 -65 -18 -39 -43 -72 -69 -92 -22 -17 -63 -53 -92 -80 l-52 -50 -168 170
c-190 193 -325 308 -437 372 -223 127 -516 203 -936 241 -159 15 -1037 21
-1235 9z m1572 -159 c316 -54 499 -149 703 -367 74 -79 209 -253 235 -303 l14
-27 -157 -32 c-405 -83 -416 -85 -772 -85 -287 -1 -332 1 -384 17 -74 23 -116
63 -116 110 0 88 112 233 271 349 83 61 108 92 116 143 8 50 -15 104 -70 162
l-50 53 46 0 c25 0 98 -9 164 -20z m-268 -85 c40 -45 47 -75 27 -113 -21 -40
-53 -64 -211 -152 -319 -179 -425 -290 -425 -448 l0 -64 -194 4 c-107 2 -197
6 -201 9 -10 11 68 157 120 227 91 121 212 200 415 270 148 51 233 90 308 141
67 45 99 84 108 130 4 17 10 31 14 31 4 0 22 -16 39 -35z"/>
<path d="M2390 3320 c-19 -12 -26 -130 -11 -202 28 -133 124 -261 254 -337
131 -77 383 -151 663 -194 140 -22 178 -25 163 -14 -125 96 -994 729 -1016
741 -37 19 -34 18 -53 6z"/>
<path d="M7793 3312 c-39 -21 -1011 -735 -1012 -743 -1 -8 183 18 324 46 408
82 626 200 716 389 16 33 33 84 40 114 15 72 8 190 -11 202 -19 12 -19 12 -57
-8z"/>
<path d="M3590 2323 c-57 -20 -102 -49 -120 -77 -18 -31 -20 -50 -20 -246 0
-234 3 -246 64 -288 107 -73 279 -39 322 65 17 40 20 397 3 440 -17 45 -60 82
-113 98 -49 15 -107 18 -136 8z m123 -115 c15 -18 17 -43 17 -208 0 -167 -2
-190 -18 -210 -23 -29 -93 -32 -122 -5 -19 17 -20 31 -20 215 0 175 2 199 18
212 35 32 95 30 125 -4z"/>
<path d="M5293 2314 c-23 -8 -56 -31 -73 -50 l-30 -35 0 -229 0 -228 26 -32
c41 -48 80 -64 159 -64 57 -1 78 4 113 24 52 29 82 75 82 124 l0 36 -60 0
c-60 0 -60 0 -60 -29 0 -16 -7 -37 -16 -45 -18 -19 -94 -22 -112 -4 -9 9 -12
70 -12 213 0 227 3 239 63 239 45 0 77 -28 77 -66 0 -28 1 -28 60 -28 l60 0 0
39 c0 46 -32 97 -76 123 -44 26 -148 32 -201 12z"/>
<path d="M6408 2314 c-74 -23 -129 -104 -94 -139 20 -20 20 -24 -1 -47 -9 -11
-11 -18 -5 -18 8 0 12 -27 12 -85 0 -50 -4 -85 -10 -85 -6 0 -10 -28 -10 -63
l0 -63 34 4 c37 4 80 -13 71 -29 -4 -5 -23 -6 -44 -3 -31 5 -39 3 -45 -12 -10
-25 37 -72 56 -56 18 14 40 0 32 -21 -3 -9 -1 -17 4 -17 13 0 18 83 14 188 -3
55 -7 72 -18 72 -8 0 -29 7 -46 16 -28 15 -29 17 -14 32 13 14 20 14 36 4 30
-19 40 -15 40 16 0 22 -9 34 -37 53 -49 31 -55 68 -17 98 15 11 33 21 40 21 7
0 16 9 19 20 7 21 46 36 80 31 29 -4 55 -31 55 -56 0 -27 17 -35 76 -35 l44 0
0 45 c0 37 -6 50 -37 83 -58 60 -138 76 -235 46z"/>
<path d="M2150 2000 l0 -320 180 0 180 0 0 45 0 45 -120 0 -120 0 0 95 0 95
106 0 105 0 -3 43 -3 42 -102 3 -103 3 0 94 0 95 120 0 120 0 0 40 0 40 -180
0 -180 0 0 -320z"/>
<path d="M2826 2167 l76 -152 -81 -163 c-44 -89 -81 -164 -81 -167 0 -3 27 -5
61 -5 l60 0 51 108 51 107 50 -107 50 -108 64 0 63 0 -84 168 -84 168 78 152
77 152 -61 0 -61 0 -47 -92 -46 -93 -44 93 -43 92 -62 0 -63 0 76 -153z"/>
<path d="M4090 2280 l0 -39 68 -3 67 -3 3 -277 2 -278 60 0 60 0 0 280 0 280
65 0 65 0 0 40 0 40 -195 0 -195 0 0 -40z"/>
<path d="M4750 2000 l0 -320 60 0 60 0 0 320 0 320 -60 0 -60 0 0 -320z"/>
<path d="M7099 2248 c-11 -40 -28 -95 -36 -121 -8 -27 -13 -50 -11 -53 3 -2
16 4 29 15 13 10 40 20 60 22 l36 5 25 -103 25 -103 -31 0 c-17 0 -41 -3 -53
-6 -18 -5 -23 -2 -23 13 0 18 -57 83 -73 83 -4 0 -7 -13 -7 -30 0 -19 -5 -30
-14 -30 -13 0 -30 -45 -67 -180 -22 -81 -22 -80 41 -80 l57 0 7 38 c10 64 8
72 -19 72 -16 0 -25 6 -25 16 0 14 11 16 70 12 39 -2 70 0 70 4 0 4 7 8 15 8
8 0 15 -4 15 -9 0 -6 14 -11 32 -13 29 -3 33 -8 44 -48 7 -25 12 -35 13 -23 2
34 30 55 68 51 27 -3 32 -1 28 12 -3 9 -37 126 -76 260 -39 135 -73 248 -75
252 -3 5 -27 8 -54 8 l-49 0 -22 -72z m68 -100 c-3 -8 -6 -5 -6 6 -1 11 2 17
5 13 3 -3 4 -12 1 -19z m34 13 c7 11 9 10 9 -3 0 -10 -7 -18 -15 -18 -8 0 -15
8 -14 18 0 12 2 13 6 3 5 -11 7 -11 14 0z"/>
<path d="M7670 2057 c0 -214 3 -267 14 -276 21 -18 25 -47 10 -75 -12 -25 -12
-26 19 -26 24 0 28 3 19 12 -16 16 -15 60 1 80 6 9 23 18 37 20 23 3 24 7 21
51 -1 26 0 61 4 77 6 26 11 30 38 30 30 0 33 -4 62 -76 17 -41 40 -85 53 -96
23 -22 29 -44 13 -50 -5 -1 -3 -14 4 -28 14 -24 14 -22 15 32 0 56 0 57 30 56
17 -1 33 1 35 4 3 3 -12 45 -32 93 -30 72 -35 89 -23 93 30 10 69 60 80 102
22 82 -8 175 -69 212 -32 21 -51 23 -183 26 l-148 4 0 -265z m258 157 c19 -13
22 -24 22 -79 0 -78 -17 -95 -97 -95 l-53 0 0 95 0 95 53 0 c31 0 61 -6 75
-16z"/>
<path d="M6397 2133 c-12 -11 -8 -31 8 -37 11 -4 15 1 15 19 0 24 -10 32 -23
18z"/>
<path d="M7120 2065 c-33 -34 -33 -35 -15 -55 10 -11 21 -20 25 -20 7 0 31
102 26 107 -1 2 -17 -13 -36 -32z"/>
<path d="M6560 1825 c0 -23 5 -35 13 -35 16 0 47 -32 47 -48 0 -7 -16 -12 -40
-12 -22 0 -40 -4 -40 -10 0 -10 16 -15 35 -10 6 2 20 2 33 2 16 -1 22 4 22 19
0 29 18 59 35 59 10 0 15 11 15 35 l0 35 -60 0 -60 0 0 -35z"/>
<path d="M6484 1763 c-22 -4 -34 -29 -34 -70 0 -21 5 -23 46 -23 l45 0 -21 27
c-14 18 -19 35 -15 50 3 13 4 22 3 22 -2 -1 -13 -4 -24 -6z"/>
<path d="M6545 1760 c-4 -6 6 -10 22 -10 22 0 25 2 13 10 -19 12 -27 12 -35 0z"/>
<path d="M7315 1760 c-4 -6 5 -10 20 -10 15 0 24 4 20 10 -3 6 -12 10 -20 10
-8 0 -17 -4 -20 -10z"/>
<path d="M8040 1762 c-21 -7 -30 -23 -30 -54 0 -24 4 -28 30 -28 28 0 30 2 30
39 0 43 -6 51 -30 43z"/>
<path d="M7750 1735 c0 -18 5 -25 20 -25 15 0 20 7 20 25 0 18 -5 25 -20 25
-15 0 -20 -7 -20 -25z"/>
<path d="M7310 1720 c0 -5 18 -10 40 -10 22 0 40 -4 40 -10 0 -5 -4 -10 -10
-10 -5 0 -10 -4 -10 -10 0 -12 10 -13 27 -2 7 4 10 17 6 30 -4 18 -12 22 -49
22 -24 0 -44 -4 -44 -10z"/>
<path d="M7280 1690 c0 -6 7 -10 15 -10 8 0 15 2 15 4 0 2 -7 6 -15 10 -8 3
-15 1 -15 -4z"/>
<path d="M3088 1415 c-1 -10 -2 -69 0 -131 l3 -114 57 0 c104 1 172 53 172
135 0 74 -54 116 -156 123 -63 4 -72 2 -76 -13z m167 -50 c38 -37 31 -108 -14
-142 -9 -7 -40 -13 -68 -13 l-53 0 0 90 0 90 55 0 c46 0 60 -4 80 -25z"/>
<path d="M3590 1300 l0 -131 73 3 c56 2 72 6 72 18 0 11 -14 16 -52 18 -53 3
-53 3 -53 36 0 34 20 53 41 40 17 -10 59 5 59 21 0 11 -13 15 -50 15 l-50 0 0
38 0 37 47 0 c37 0 48 4 51 18 3 15 -5 17 -67 17 l-71 0 0 -130z"/>
<path d="M4064 1393 c-57 -135 -84 -203 -84 -212 0 -26 29 -7 45 29 18 39 19
40 70 40 51 0 52 -1 70 -40 12 -27 24 -40 37 -40 11 0 18 4 16 9 -38 97 -114
251 -124 251 -8 0 -21 -17 -30 -37z m51 -69 c8 -20 15 -38 15 -40 0 -2 -16 -4
-35 -4 -19 0 -35 5 -35 10 0 13 29 70 35 70 3 0 12 -16 20 -36z"/>
<path d="M4472 1303 l3 -128 73 -3 c67 -3 72 -1 72 18 0 18 -6 20 -55 20 l-55
0 0 110 c0 104 -1 110 -20 110 -20 0 -20 -5 -18 -127z"/>
<path d="M4880 1300 l0 -131 73 3 c56 2 72 6 72 18 0 11 -13 15 -53 15 l-53 0
3 39 3 39 48 0 c40 -1 47 2 47 18 0 16 -8 19 -50 19 l-50 0 0 35 0 35 50 0
c43 0 50 3 50 20 0 18 -7 20 -70 20 l-70 0 0 -130z"/>
<path d="M5290 1301 c0 -124 1 -131 20 -131 18 0 20 7 20 56 0 52 2 55 22 52
14 -2 36 -23 58 -55 19 -29 43 -52 53 -53 24 0 22 5 -22 70 -37 56 -37 59 -20
74 24 20 24 57 1 86 -14 18 -32 24 -75 28 l-57 4 0 -131z m85 89 c21 -8 26
-16 23 -38 -2 -22 -8 -28 -35 -30 -32 -3 -33 -2 -33 37 0 44 4 47 45 31z"/>
<path d="M5752 1414 c-34 -24 -30 -76 9 -106 59 -45 79 -67 73 -82 -9 -24 -41
-29 -74 -12 -28 13 -30 13 -30 -4 0 -43 83 -54 118 -17 43 45 27 79 -70 149
-45 32 8 68 65 43 13 -5 17 -2 17 13 0 34 -68 45 -108 16z"/>
<path d="M6134 1417 c-2 -7 -3 -65 -2 -127 3 -100 5 -115 21 -118 14 -3 17 5
17 52 l0 56 69 0 70 0 3 -52 c2 -41 7 -54 21 -56 15 -3 17 8 17 128 0 120 -2
131 -17 128 -14 -2 -19 -15 -21 -56 l-3 -52 -70 0 -69 0 0 55 c0 43 -3 55 -15
55 -9 0 -18 -6 -21 -13z"/>
<path d="M6630 1299 c0 -119 2 -130 18 -127 15 3 17 19 20 131 2 122 2 127
-18 127 -19 0 -20 -6 -20 -131z"/>
<path d="M6950 1300 c0 -109 2 -130 15 -130 12 0 15 13 15 55 0 51 2 55 24 55
72 0 117 49 97 103 -13 32 -46 47 -107 47 l-44 0 0 -130z m96 90 c16 0 26 -28
19 -51 -5 -14 -16 -19 -46 -19 -38 0 -39 1 -39 33 0 40 8 50 35 43 11 -3 25
-6 31 -6z"/>
</g>
</svg>
